<svg xmlns="http://www.w3.org/2000/svg" width="24" height="24" viewBox="0 0 6.35 6.35"><path fill-rule="evenodd" d="M3.181.265a.795.795 0 00-.716.44l-.125.25a2.33 2.33 0 00-.145.06L1.93.925A.794.794 0 00.927 1.93l.088.264a2.38 2.38 0 00-.062.147l-.249.124a.794.794 0 000 1.419l.25.126c.019.05.039.098.06.146l-.087.264A.794.794 0 001.93 5.423l.264-.087c.048.022.097.042.147.06l.124.25a.794.794 0 001.42 0l.124-.25c.05-.019.1-.039.148-.06l.263.087A.794.794 0 005.423 4.42l-.087-.265c.021-.048.042-.097.06-.146l.25-.125a.794.794 0 000-1.419l-.25-.125a2.378 2.378 0 00-.06-.146l.087-.264A.794.794 0 004.42.925l-.265.088a2.41 2.41 0 00-.146-.06l-.125-.25a.794.794 0 00-.703-.439zm-.004.53c.1 0 .19.056.234.146l.168.336a.265.265 0 00.156.134c.1.032.197.071.29.12a.265.265 0 00.205.016l.357-.119a.263.263 0 01.334.334l-.118.357a.265.265 0 00.015.203c.048.093.087.19.119.29a.265.265 0 00.134.158l.338.169a.263.263 0 010 .472l-.337.168a.265.265 0 00-.133.156 1.85 1.85 0 01-.12.29.265.265 0 00-.017.205l.12.357a.263.263 0 01-.334.334l-.357-.118a.265.265 0 00-.204.015c-.093.048-.19.088-.29.12a.265.265 0 00-.157.133l-.169.337a.263.263 0 01-.472 0l-.168-.335a.265.265 0 00-.156-.134 1.852 1.852 0 01-.29-.12.265.265 0 00-.206-.017l-.357.12a.263.263 0 01-.333-.335l.118-.356a.265.265 0 00-.016-.204 1.85 1.85 0 01-.119-.29.265.265 0 00-.133-.157l-.337-.17a.265.265 0 00-.001 0 .263.263 0 010-.471l.336-.168a.265.265 0 00.134-.156c.032-.1.072-.197.12-.29a.265.265 0 00.017-.205l-.12-.357a.263.263 0 01.334-.335l.357.12a.265.265 0 00.204-.016c.093-.048.19-.087.29-.119a.265.265 0 00.157-.134l.169-.338a.263.263 0 01.238-.147zm-.001 1.057c-.727 0-1.324.595-1.324 1.322a1.33 1.33 0 001.324 1.324c.727 0 1.322-.596 1.322-1.324 0-.727-.595-1.322-1.322-1.322zm0 .53c.441 0 .793.35.793.792a.79.79 0 01-.793.795.792.792 0 01-.795-.795.79.79 0 01.795-.793z" color="#000" font-family="sans-serif" font-weight="400" overflow="visible" paint-order="stroke fill markers" style="line-height:normal;font-variant-ligatures:normal;font-variant-position:normal;font-variant-caps:normal;font-variant-numeric:normal;font-variant-alternates:normal;font-feature-settings:normal;text-indent:0;text-align:start;text-decoration-line:none;text-decoration-style:solid;text-decoration-color:#000;text-transform:none;text-orientation:mixed;shape-padding:0;isolation:auto;mix-blend-mode:normal"/></svg>